<svg xmlns="http://www.w3.org/2000/svg" viewBox="0 0 277.57 512.23">
  <path fill="#010101" d="M13.74.88C2.28 4.18-2.77 17.69 1.7 28.24c6.75 15.91 26.97 29.92 39.04 42 46.17 46.17 92.82 91.82 139 138l35 35c2.94 2.94 10.95 8.46 10.95 13 0 4.78-8.83 10.88-11.95 14l-35 35c-46.84 46.85-94.15 93.16-141 140-11.3 11.3-30.78 24.72-36.44 40a19.85 19.85 0 0 0 18.44 27c11.43.1 17.42-7.42 25-15l33-33c49.18-49.17 98.82-97.82 148-147l39-39c6.52-6.52 13.93-13.9 12.69-24-2.03-16.5-23.66-30.97-34.69-42l-98-98c-29.81-29.82-60.16-59.17-90-89C43.9 14.4 31.5-4.26 13.74.88z"/>
</svg>