<svg xmlns="http://www.w3.org/2000/svg" viewBox="0 0 277.57 512.23">
  <path fill="#010101" d="M263.82.88c11.46 3.3 16.52 16.81 12.05 27.36-6.75 15.91-26.97 29.92-39.05 42-46.17 46.17-92.82 91.82-139 138l-35 35c-2.94 2.94-10.94 8.46-10.94 13 0 4.78 8.83 10.88 11.94 14l35 35c46.85 46.85 94.16 93.16 141 140 11.3 11.3 30.79 24.72 36.44 40a19.85 19.85 0 0 1-18.44 27c-11.42.1-17.42-7.42-25-15l-33-33c-49.17-49.17-98.82-97.82-148-147l-39-39c-6.51-6.52-13.92-13.9-12.68-24 2.02-16.5 23.65-30.97 34.68-42l98-98c29.82-29.82 60.17-59.17 90-89 10.84-10.84 23.24-29.5 41-24.36z"/>
</svg>